<svg width="107" height="128" viewBox="0 0 107 128" fill="none" xmlns="http://www.w3.org/2000/svg">
  <title>supakit-logo</title>
  
  <!-- Svelte logo (background) -->
  <path d="M94.1566,22.8189c-10.4-14.8851-30.94-19.2971-45.7914-9.8348L22.2825,29.6078A29.9234,29.9234,0,0,0,8.7639,49.6506a31.5136,31.5136,0,0,0,3.1076,20.2318A30.0061,30.0061,0,0,0,7.3953,81.0653a31.8886,31.8886,0,0,0,5.4473,24.1157c10.4022,14.8865,30.9423,19.2966,45.7914,9.8348L84.7167,98.3921A29.9177,29.9177,0,0,0,98.2353,78.3493,31.5263,31.5263,0,0,0,95.13,58.117a30.0061,30.0061,0,0,0,4.4743-11.1824A31.8866,31.8866,0,0,0,94.1566,22.8189Z" fill="#ff3e00"/>
  
  <!-- Supabase logo (overlay, scaled and centered) -->
  <g transform="translate(14, 23) scale(0.7128) rotate(51 54.5 56.5)">
    <path d="M63.7076 110.284C60.8481 113.885 55.0502 111.912 54.9813 107.314L53.9738 40.0627L99.1935 40.0627C107.384 40.0627 111.952 49.5228 106.859 55.9374L63.7076 110.284Z" fill="url(#paint0_linear)"/>
    <path d="M63.7076 110.284C60.8481 113.885 55.0502 111.912 54.9813 107.314L53.9738 40.0627L99.1935 40.0627C107.384 40.0627 111.952 49.5228 106.859 55.9374L63.7076 110.284Z" fill="url(#paint1_linear)" fill-opacity="0.2"/>
    <path d="M45.317 2.07103C48.1765 -1.53037 53.9745 0.442937 54.0434 5.041L54.4849 72.2922H9.83113C1.64038 72.2922 -2.92775 62.8321 2.1655 56.4175L45.317 2.07103Z" fill="#ffffff"/>
  </g>
  
  <defs>
    <linearGradient id="paint0_linear" x1="53.9738" y1="54.974" x2="94.1635" y2="71.8295" gradientUnits="userSpaceOnUse">
      <stop stop-color="#d1d5db"/>
      <stop offset="1" stop-color="#ffffff"/>
    </linearGradient>
    <linearGradient id="paint1_linear" x1="36.1558" y1="30.578" x2="54.4844" y2="65.0806" gradientUnits="userSpaceOnUse">
      <stop/>
      <stop offset="1" stop-opacity="0"/>
    </linearGradient>
  </defs>
</svg>